<svg width="49" height="48" viewBox="0 0 49 48" fill="none" xmlns="http://www.w3.org/2000/svg">
<path d="M45.625 2.15625L36.8125 0.1875C34.75 -0.28125 32.6875 0.75 31.9375 2.625L27.8125 12.1875C27.0625 13.875 27.5312 15.9375 29.0312 17.1562L32.7812 20.25C30.1562 25.125 26.0312 29.1562 21.1562 31.875L18.0625 28.125C16.8438 26.625 14.7812 26.1562 13.0938 26.9062L3.53125 30.9375C1.65625 31.7812 0.625 33.8438 1.09375 35.9062L3.0625 44.7188C3.53125 46.6875 5.3125 48 7.28125 48C30.25 48 49 29.4375 49 6.375C49 4.40625 47.5938 2.625 45.625 2.15625ZM7.46875 43.5L5.5 35.0625L14.6875 31.125L19.9375 37.5C29.2188 33.0938 34 28.3125 38.4062 19.0312L32.0312 13.7812L35.9688 4.59375L44.5 6.5625C44.4062 26.9062 27.8125 43.4062 7.46875 43.5Z" fill="#C1B26D"/>
</svg>
