<svg width="48" height="48" viewBox="0 0 48 48" fill="none" xmlns="http://www.w3.org/2000/svg">
<path d="M24 0.75C11.1562 0.75 0.75 11.1562 0.75 24C0.75 36.8438 11.1562 47.25 24 47.25C36.8438 47.25 47.25 36.8438 47.25 24C47.25 11.1562 36.8438 0.75 24 0.75ZM24 42.75C13.5938 42.75 5.25 34.4062 5.25 24C5.25 13.6875 13.5938 5.25 24 5.25C34.3125 5.25 42.75 13.6875 42.75 24C42.75 34.4062 34.3125 42.75 24 42.75ZM29.7188 33C30.2812 33.375 30.9375 33.2812 31.3125 32.7188L33.0938 30.375C33.4688 29.8125 33.375 29.1562 32.8125 28.7812L26.625 24.1875V10.875C26.625 10.3125 26.0625 9.75 25.5 9.75H22.5C21.8438 9.75 21.375 10.3125 21.375 10.875V26.3438C21.375 26.625 21.4688 27 21.75 27.1875L29.7188 33Z" fill="#C1B26D"/>
</svg>
